<svg xmlns="http://www.w3.org/2000/svg" viewBox="0 0 24 24" fill="none" stroke="#006879" stroke-width="1.2" stroke-linejoin="round">
  <!-- Зуб: силуэт с короной и волнистыми корнями -->
  <path d="M12 2c1.5 0 2.5 1 2.8 2.2.3 1.2.2 2.5-.2 3.7-.4 1.2-1 2.2-1.2 3.4v5.6h-2.4v-5.6c-.2-1.2-.8-2.2-1.2-3.4-.4-1.2-.5-2.5-.2-3.7C9.5 3 10.5 2 12 2z"/>
  <path d="M9.5 17.5c.4.3 1 .5 1.5.5s1.1-.2 1.5-.5"/>
  <path d="M10 19.2c.3.3.8.5 1.3.5.5 0 1-.2 1.3-.5"/>
  <path d="M11.5 20.5c.4.2.9.3 1.4.3.5 0 1-.1 1.4-.3"/>
  <path d="M13 19.2c-.5 0-1-.2-1.3-.5"/>
  <path d="M15 17.5c-.4.3-1 .5-1.5.5"/>
</svg>
